<svg width="85" height="36" viewBox="0 0 85 36" fill="none" xmlns="http://www.w3.org/2000/svg">
<path d="M83.281 10.829C82.0315 10.829 81.5607 11.2636 81.3434 11.6801C80.6553 13.8169 80.0577 15.7183 79.1704 17.6922C78.1744 19.9195 76.4541 23.2877 75.1321 23.2877C74.0637 23.2877 73.8283 21.8028 73.9551 20.5171C74.0275 18.7062 74.6975 16.0443 75.1503 14.0704L75.5486 12.2596C75.7478 11.0644 75.0778 10.5392 73.8464 10.5392C72.8686 10.5392 72.1985 10.9738 72.0718 11.3903C71.5466 13.328 71.2207 14.9215 70.279 17.0583C69.772 18.2354 69.0295 19.7384 67.4541 21.1871C67.7438 19.3763 67.0919 17.2394 66.3494 15.338C65.9511 14.2153 65.5708 13.328 64.8645 12.0785C64.3756 11.1911 63.6694 10.3219 62.4561 10.3219C61.6593 10.3219 60.7539 10.6298 60.3917 11.1006C59.6855 13.2555 57.6392 17.0583 55.937 19.3944C55.9551 17.8551 55.0859 15.5191 54.2348 13.9256C53.9088 13.3099 53.1845 12.0785 52.7861 11.499C52.2247 10.666 51.609 10.2314 50.7217 10.2314C49.7438 10.2314 49.1824 10.4849 48.7659 11.0101C48.0416 13.2193 46.3032 16.9316 45.271 18.7787C44.275 20.5895 43.2971 22.4728 42.5004 22.4728C41.7941 22.4728 41.7579 21.4406 41.8484 20.5895C41.9933 18.9598 43.5144 14.0523 43.8947 12.7666C44.1845 11.5714 43.0255 11.1368 41.939 11.3903L40.6714 11.7344C39.8565 10.9557 38.3535 9.92354 36.4521 9.92354C32.6493 9.92354 28.9008 14.4688 28.4662 19.666C27.271 21.3863 25.605 23.2877 23.9571 23.0704C23.1603 22.9618 22.4541 22.3823 22.1825 21.3501C25.7499 17.2213 29.5708 10.8652 29.9873 6.22938C30.2951 2.89738 29.0275 0.851107 26.438 0.851107C21.6392 0.851107 18.1623 7.64185 17.5285 14.505C17.3112 17.004 17.3293 19.0865 17.7821 20.9698C15.7177 23.1429 12.8746 24.8994 10.0315 24.8994C7.11606 24.8994 4.20056 22.0744 4.56274 16.4789C4.92491 10.7203 8.78205 3.16901 12.3313 3.16901C13.5446 3.16901 14.0517 4.4004 13.9068 5.50503C13.7619 6.59155 13.3998 7.26157 12.8565 7.96781C12.6754 8.83702 13.3273 9.94165 14.5768 9.94165C16.3515 9.94165 17.4018 7.9497 17.601 5.55936C17.8545 2.58954 16.2428 0 12.766 0C5.46817 0 0.452072 9.12676 0.0355732 16.497C-0.344708 23.0342 2.29915 28.5211 9.16233 28.5211C12.5305 28.5211 15.8988 26.4748 18.9048 23.8491C19.9189 25.3159 21.0778 26.4567 23.3776 26.4567C25.3515 26.4567 27.3796 24.8813 28.7921 23.1791C29.4621 25.2072 30.947 26.4567 32.776 26.4567C35.0034 26.4567 36.8686 24.9356 38.3354 22.5091C38.7881 24.2294 39.5849 25.8592 41.5225 25.8592C43.7318 25.8592 44.9631 24.175 46.448 21.9477C47.6251 20.1911 48.4943 18.0543 49.9792 15.1207L50.5225 15.9175C51.6814 17.9819 52.6231 19.9014 52.442 21.3682C52.2428 22.9074 51.1382 23.4688 50.1241 23.4688C49.0919 23.4688 48.6754 22.8531 47.933 22.3461C47.1362 22.4547 46.6653 23.3783 46.5748 24.1569C46.3756 25.7867 47.6613 26.6559 49.9611 26.6559C53.0758 26.6559 54.7961 25.1891 56.2991 23.3058C57.9289 21.2414 60.5004 17.2938 61.5507 14.8491C62.782 17.0765 64.0134 19.7022 63.7961 21.3501C63.6332 22.6358 62.8002 23.668 61.4782 23.668C60.5004 23.668 59.6674 22.7988 59.0154 22.4547C58.5808 22.4547 57.8565 23.4145 57.7478 24.3561C57.5486 25.8954 58.8525 26.8551 61.605 26.8551C64.9913 26.8551 68.106 24.501 70.4058 21.6942C70.605 24.3561 71.601 26.5292 74.3354 26.5292C76.2006 26.5292 78.0114 25.1891 79.6955 22.3099C79.6955 22.3099 78.8987 25.7686 78.6633 26.7646C78.0114 29.499 77.3595 32.0342 77.1965 33.8451C77.0517 35.3843 78.0295 36 79.0979 36C80.0758 36 80.9269 35.3119 81.0718 34.8048C81.5607 29.4628 82.5386 24.2475 83.5527 18.9598C83.8424 17.4386 84.766 12.8571 84.766 12.8571C84.9108 11.6801 84.5305 10.829 83.281 10.829ZM21.4581 15.2837C21.9108 10.2133 24.5004 3.94769 26.2207 3.94769C27.108 3.94769 27.0356 5.19718 26.9269 6.30181C26.601 9.833 23.9209 14.3964 21.3132 17.837C21.2951 17.1489 21.3857 16.1529 21.4581 15.2837ZM33.7901 23.1972C32.4501 23.1972 32.3414 21.3863 32.4863 19.8471C32.776 16.66 34.5869 12.9658 36.5245 12.9658C37.6835 12.9658 38.4802 14.3421 38.8605 15.1207C38.1543 17.9457 35.6734 23.1972 33.7901 23.1972Z" fill="#2D2E31"/>
</svg>
